<svg xmlns="http://www.w3.org/2000/svg" width="682.67" height="682.67">
  <defs>
    <clipPath id="a">
      <path d="M0 512h512V0H0z"/>
    </clipPath>
  </defs>
  <path d="M129.96 380.9l-.86-.33-1.26-.75-3.44-2.68-.8-.7-2.39-2.45-.5-.62-.22-.45.16-.39.43-.58 2.5-2.64.68-.88.64-.93.6-.87.95-1.19.53-.5.56-.03.47.15.64.47 2.65 2.08.8.7 2.42 2.22.7.79.87 1.2.44.9.15.93-.08.98-.3 1.05-.46.92-.64.92-.7.89-.74.74-.89.62-1 .44-1.01.16zm3.08 11.64l.94.03 1.48-.1.93-.14.96-.2 1.01-.26 1.1-.35 1-.43.94-.48.9-.62.89-.71.83-.75.75-.75.7-.8.85-1.17.65-.83.55-.92.44-1.01.31-1.05.27-1 .22-1.46.13-1.03.17-1.6.03-1.03-.06-.92-.15-.93-.38-1.47-.3-.96-.43-1-.53-.99-.48-.95-.52-.9-.78-1.2-.61-.8-.8-.8-1.88-1.64-3.09-3.08-.79-.7-3.53-2.75-5.71-5.37-2.14-2.05-.79-.6-.44-.3-.72-.38-.64.14-.72.5-.3.26-.71.7-1.34 1.72-.7.79-2.29 2.71-.7.8-2.4 2.53-.7.8-2.5 2.53-.69.79-2.19 2.8-.7.8-2.5 2.53-.7.8-2.24 2.66-.65.83-2.2 2.8-.7.79-2.54 2.5-.75.74-1.22 1.2-.61.79-.56.73-.33.58.12.47.5.61 2.15 2.15.79.7 2.4 1.85 2.25 2.23.79.7.67.33.47-.03.62-.5.74-.75.7-.8 1-1.23.64-.83 2.24-2.94.64-.84 2.5-2.63.7-.51.66.05.68.51 1.5 1.5.55.57.17.4v.7l-.29 3.52-.08.99-.61 3.49-.08.99-.29 3.51-.07.99-.38 3.6.05.76.27.58.64.57 2.32 1.85.79.7 2.67 2.44 3.46 3.04.82.37.6-.27.22-.76.04-.94.03-3.12.02-1.03.4-4.04.02-1.02.36-4 .07-.98.44-4.09.15-.56.53.2.76.41.95.22.9.17zm38.21 14.61l-1.04 3.97-.26 1.01-1.26 4.53-.24.86-.54.45-.72.15-.86-.25-2.48-1.87-3.46-2.28-.7-.62-.43-.67.28-.77.7-.71 3.86-2.75.87-.6 3.95-2.77.9-.19.72.24.6.63.3.75zm12.42-11.92l-2.49-1.72-4.29-2.82-2.6-1.56-.93-.38-.77-.03-.67.42-2.48 1.61-.87.6-2.71 1.85-.97.62-2.84 1.68-.96.63-3.72 2.28-4.94 3.2-.84.56-3.51 2.1-.88.61-3.21 2.14-.88.6-3.46 2.14-.83.56-3.4 2.17-.87.6-1.9 1.2-.9.67-.41.37-.53.68.05.9.44.75.75.42 3.56 2.02.88.58 3.08 2.27.84.63 1.04.22 1.08-.32.9-.66 3.73-2.9.77-.45.62.02.78.35 2.53 1.67.87.49.82.54 3.26 2.23 4.06 2.82.88.58 3.15 2.4.63.49.42.43.02.8-1.33 5.75-.13.78.04.66.58.7 3.55 2.02 2.47 1.63.8.6 1.18.94.77.5.79.37.78.12.79-.35.34-.88.71-3.48.8-4.44.12-1.02.38-3.46.54-4.53.18-.99.71-3.47.17-.99.57-3.49.18-.98.53-3.44.17-.99.86-3.45.17-.99.57-3.5.18-.98.32-3.49.22-1.04.64-2.65.2-.9-.32-.84zm43.45 52.42l.53-1.41.39-.92.9-1.76.32-.94.14-.5.19-.78-.04-.6-.23-.45-.62-.4-1.45-.62-2.38-.8-.94-.32-4.6-1.95-3.59-1.67-1-.35-2.13-.69-1.58-.67-.65-.49-.2-.37.1-.38.22-.7 2.4-5.34.43-.82.42-.32.68.07 1.34.57 2.65 1.33 7 2.7 3.95 1.66.94.47 1.72 1.02 1.27.53.74.1.5-.15.36-.34.34-.64.44-.88.36-1 .49-1.5.41-.98.9-1.76.38-.92.17-.56.22-.7-.09-.46-.28-.34-.64-.34-.98-.56-.95-.47-1.49-.7-.96-.42-3.66-1.33-.97-.41-3.5-1.7-1-.35-3.65-1.33-.96-.41-3.44-1.68-.97-.4-3.65-1.34-.97-.41-2.23-1.16-1.34-.57-.65-.13-.44.03-.3.37-.37.7-1.48 3.16-2.19 5.15-1.48 3.16-2.18 5.15-1.49 3.16-.4.97-1.21 3.35-.42.97-1.18 3.3-.47.94-1.6 3.1-.47.95-1.3 3.24-.36 1-1.17 3.29-.23.69-.06.47.26.4.62.4 1.77.9 2.56.86.97.42 2.21 1.01 1 .35 1.08.32.72.16.44-.03.34-.29.37-.7.49-1 .48-.95.5-1.36.41-.97 1.68-3.29.41-.97 1.52-3.43.34-.79.4-.26.68.08.9.24.94.32 6.49 2.9.97.41 3.69 1.42.94.47 2.12 1.26 1.45.61.8.13.41-.12.39-.4.43-.68.47-.94zm34.71 9.9l-.63.39-.9.06-2.96-.92-4.03-.96-.86-.34-.63-.49v-.81l.41-.91 2.7-3.9.6-.86 2.77-3.94.8-.48.75-.03.78.4.53.6.12.9.38 4.08.1 1.03.36 4.7.05.88zm16.12 14.61l-.24-1-.81-3.38-1.04-4.44-.17-.99-.51-3.5-.17-.99-.65-3.47-.18-.99-.67-3.4-.17-.99-.37-3.54-.17-.99-.66-3.47-.17-.98-.88-3.4-.15-1.04-.3-2.72-.12-.9-.58-.68-1.04-.45-2.93-.77-5-1.2-2.96-.57-1.01-.04-.73.23-.5.63-1.77 2.35-.61.86-1.92 2.66-.7.91-2.1 2.55-.68.91-2.71 3.41-3.56 4.7-.6.8-2.58 3.17-.61.87-2.3 3.1-.62.87-2.52 3.18-.6.8-2.45 3.2-.61.88-1.37 1.77-.63.92-.25.49-.26.81.34.83.67.57.85.13 4.03.7 1.02.24 3.67 1.08 1 .3 1.05-.15.9-.66.64-.93 2.5-4 .58-.68.58-.2.87.07 2.94.7.97.17.96.24 3.83.97 4.76 1.28 1.03.25 3.78 1.17.75.25.54.26.3.75.7 5.85.15.78.26.6.77.46 4.03.69 2.88.69.94.3 1.44.47.9.22.86.07.78-.15.62-.6.02-.94-.52-3.5zm52.37 2.65l-.43-.3-.65-.17-1.5-.1-2.71-.06-1.06-.01-4.14-.23-1.04-.08-4.16-.03-5.18-.37-.78-.12-.45-.3-.17-.34-.02-.66.32-4.4.3-3.34.51-.75 5.37-2.2.76-.4.29-.44.18-.71.14-.98.06-.99.01-.99.14-1.04.34-1.96.07-.98-.28-.81-.5-.37-.59-.04-.86.14-1.01.26-1.01.32-1.02.39-.8.08-.5-.37-.3-.42-.08-.73.12-3.55.14-1.05.44-3.46.14-1.05.19-1.64v-.98l-.06-1-.08-.73-.3-.42-.38-.22-.78-.12-1.04-.14-1.06-.08-2.57-.05-1.04-.07-3.53-.45-1.13-.01-.65.01-.42.17-.28.38-.26.77-.27 1.96-.02 2.24-.09 1.12-.43 4.26-.45 6.3-.04 4.21-.06.99-.33.9-.63.55-.88.33-1.01.2-1.07.31-.7.41-.23.52-.12.84-.4 2.74-.14 1.05-.17 1.5-.07 1 .1.4.15.73.43.42.58.25.66-.02.74-.28.35-.24.95-.46.74-.08.29.55-.06.85-.31 2.49-.15 1.04-.28 3.15-.14 1.04-.26 1.7-.07.98.03.53.15.74.3.42.51.16 1.83.4 1.04.13 2.69.2 3.81.14 1.06.08h3.82l1.05.07 3.8.4 5.9.43 6.86.95.99.07h.92l.8-.15.55-.35.23-.45.18-.71.11-1.5-.24-2.2.08-1.05.51-2.54.08-1.11-.07-.87zm80.18-15.58l-.4-2.08-.57-2.91-.26-4.08-.13-1.04-.38-4-.13-1.05-.71-4.02-.14-1.04-.12-1.51-.13-.98-.31-1.95-.17-.78-.58-.39-.88-.09-.98.06-1.04.14-2.59.53-1.04.13-3.37.16-1.37.18-.82.3-.52.6-.15.95.21 1.63.55 2.72.2 1.03.64 4.03.14 1.05.38 4 .13 1.04.32 4.07.13 1.05.77 3.94.07 1.06-.01 1.99-.07 1.06-.19 1.1-.33 1.03-.54 1.46-.56.87-.92 1.05-.78.63-1.17.74-.95.39-1.65.54-1.05.13-1.71.1-1.01-.14-1.5-.35-.92-.4-1.19-.99-.75-.7-.84-1.41-.52-.93-.57-1.39-.33-1.02-.34-1.61-.2-1.04-.44-3.99-.14-1.05-.31-4-.13-1.04-.45-4-.13-1.04-.7-3.95-.14-1.05-.19-2.56-.12-.98-.19-.9-.3-.83-.59-.45-.87-.1-1.51.13-.99.06-2.15.34-1.04.13-2.5.13-2.14.4-.83.3-.38.65-.06 1.07.08 1.12.14 1.11.4 2.07.77 6.07.31 4 .14 1.05.63 3.97.14 1.04.3 4 .2 1.04.42 2.2.27 1.1.34 1.08.44 1.4.39.95.38.88.52.93.58.99.65.91.7.84 1.27 1.56.68.71 1 1 .8.63 1.88 1.22 1.07.53 1.05.46 1.52.47 1.1.32.55.13 1.09.2.6-.01 1.06.06 3.64-.07.99-.06 1.52-.06 3-.39 2-.38.96-.32 1.47-.46.94-.38 1.37-.7.94-.46 1.28-.82.8-.57 1.2-.95.78-.7 1.17-1.2.76-.84.67-.94.55-.93.68-1.41.34-.98.41-1.45.21-.95.35-1.44.14-1.01.06-1.53.06-1.07.07-1.6v-1l-.12-1.5zm40.31-1.81l-.14.45-.36.59-.6.53-.95.5-2.1.77-8.82 2.9-.86.12-.51-.12-.37-.3-.34-.65-.38-1.26-.2-1.11-.43-1.39-.37-.98-.32-1.07-.17-.78.09-.37.51-.36 1.07-.54.93-.35 3.71-1.13 1.06-.39 2.79-.99.9-.2.48-.02 1.05.03 1.17.26 1.07.57.52.33.77.72.45.83.33.86.06.4.11 1.06zm-18.52-12.46l-.77.17-.59-.1-.36-.3-.34-.66-.37-.98-.22-.49-.24-1.03-.27-1.57-.06-.87.15-.4.32-.3.55-.23.6-.32 1.31-.4.99-.37 1.56-.55.95-.29 2.55-.43.56-.17 1.1-.2.47-.07 1.02-.04.42.01 1.07.36.82.65.43.76.33 1.07.08.94-.19.74-.28.64-.5.63-.64.62-.76.43-1.38.42-2.18.53-1.49.32-1.07.32-1.05.4zm31.49 7.12l-.24-1.02-.24-.55-.45-1.04-.58-.99-.63-.9-.4-.43-.75-.88-.85-.77-1.35-1.04-1-.58-.97-.46-.76-.46-.34-.45.05-.5.35-.65.72-1.25.42-.9.33-1.4.1-1-.06-1.55-.13-1.14-.27-1.09-.37-.98-.75-1.56-.5-.95-.6-.85-.65-.77-1.06-.98-.68-.69-1.21-.8-.84-.5-1.34-.55-1-.32-1.38-.27-1.08-.15-2.62-.03-1.13.14-1.1.2-3.74.86-1 .3-3.49 1-1 .31-3.37 1.16-5.57 1.36-6.81 2.28-.99.37-.84.4-.51.56v.9l.44 1.45.76 1.83.37.98 1.27 3.27.25 1.02.82 3.4.25 1.02 1.08 3.32.3 1.01 1.15 3.3.3 1 .77 3.42.85 2.77.41 1.6.3.94.32.86.35.93.55 1.55.37 1 .82 3.39.33 1.07.09.52.3 1 .23.97.34.86.33.66.42.22.55.03.92-.14 1.05-.18 2.41-.67.95-.29 3.42-1.18 1.01-.3 3.58-.89 5.48-1.67 3.43-1.19 1-.3 1.48-.59.99-.37 1.39-.63 2.66-1.43.84-.6.92-.63.8-.72.75-.71.67-.76 1.23-1.61.48-.9.64-1.5.32-1 .26-1.39.11-1 .04-1.45-.1-1zm35.42-3.68l-1.47-2.36-.46-.95-1.34-3.3-.41-.97-1.81-3.06-2.37-4.78v-.59l.61-3.68.21-1.05.55-3.65.18-1.12.48-3.6.12-1.1.22-3.7.15-1.04.67-3.7.2-1.05 1.16-8.36.09-.7-.06-.27-.36.03-.76.23-3.47 1.43-.95.47-3.33 1.87-.94.47-3.04 1.28-.68.26-.41.35-.18.82-.3 3.53-.07 1.06-.1 3.5-.15 1.03-.54 3.5-.16 1.03-.07 3.56-.21.61-.42.06-.66-.33-2.85-1.74-.94-.57-2.88-1.95-.85-.54-3.08-1.77-.85-.53-3.17-2.1-.32-.06-.68.26-3.5 1.52-.98.4-7.9 3.91-.24.41.09.33.44.44 3.1 1.98.89.6 3.14 1.89.88.6 7.22 4.2.88.6 3.11 1.97.94.56 3.2 1.73.94.56 3 2.04.6.2.39.48 1.34 3.3.52.92 1.82 3.06.52.92 3.6 7.25.4.53.33.06 7-3.18 3.9-1.92.47-.39.12-.35-.06-.56zm49.52-38.96l-.28-1.42-.27-.94-.57-1.37-.45-.97-.54-.99-.6-.95-.7-.87-.68-.73-1.06-1.03-.78-.65-.95-.53-.93-.4-1.33-.5-1-.26-1.04-.22-2.48-.18-1 .07-1.05.1-1.02.17-1.41.28-1.89.53-.96.36-1.42.62-2.1.68-2.12.87-1.03.49-1.9 1.2-1.45.79-.92.41-.48.1-.88.14-.97-.1-.92-.4-.66-.58-.5-.94-.17-1.02.04-.5.3-.95.2-.39.67-.88.8-.8.87-.71 1.4-1 1.46-.89.9-.55 1.42-.61 1.07-.44.5-.2 1-.3.49-.11 1.03-.25 1.14-.09.73-.11.42-.22.31-.46.26-1 .05-1.17.13-4.13-.03-.95-.18-1.49-.1-.82-.37-.54-.83-.13-1.04.01-1.02.16-1.44.13-1.03.26-1.07.2-1.09.29-1.1.38-1.05.34-1.06.44-2.06.98-.93.5-.45.16-.88.47-1.72.98-.86.61-.76.63-.79.72-1.02 1.05-1.46 1.37-.74.77-1.08 1.1-.6.83-1.16 1.8-.6 1.3-.48.92-.35.98-.32 1.03-.28 1.41-.11.97.03.95.16 1.02.3 1.56.3 1 .29.84.4.92.82 1.37.56.9 1.33 1.63 1 1.06.74.7 1.17.85.9.57 1.05.46.98.36 1.45.1 1.04-.01 1.15-.1 1.04-.01 2.47-.4 1.07-.19 1-.3 1.48-.42 1-.4 1.84-.81 5.44-3.16 1.02-.49 1.06-.43 1.04-.25.54-.15 1.08.04.5.13.96.44.42.36.7.86.25 1.04v.57l-.15.92-.4.92-.57.9-.35.41-.78.72-3.22 2.62-.9.56-1.27.83-.97.44-1.05.35-1 .3-1.65.3-1.01.15-1.11.15-2.56.04h-.9l-.66.3-.36.75-.11.97-.07.93.09 2.05-.06.93-.5 2.46-.13.97-.02.42.07.68.33.33.77.18 1 .17 1.04.08 1.5.06 1.02.08 2.55-.05 1-.07 1.02-.15 1.07-.2 1.02-.17 1.45-.46 1-.3 1.02-.5.88-.46 1.3-.77.8-.49 1.17-.83 2.46-2 1.2-.93.7-.6 1.1-.94.73-.68 1.2-1.17.74-.77 1.22-1.68.93-1.31.48-.91.5-1 .35-.98.57-1.46.23-1.05.18-1.1.08-1.03-.05-1.42z"/>
  <g clip-path="url(#a)" transform="matrix(1.33333 0 0 -1.33333 0 682.67)">
    <path d="M458.58 249.13l-137.71 114.6a4.24 4.24 0 0 1-5.69-.23c-16.48-16.23-36.4-24.52-59.16-24.65-22.8.13-42.72 8.42-59.2 24.65a4.24 4.24 0 0 1-5.69.23l-137.7-114.6a4.23 4.23 0 0 1-.7-5.79 90.6 90.6 0 0 1 9.57-11.15 4.24 4.24 0 0 1 6.07 5.92 91.6 91.6 0 0 0-6.4 7.1l39.58 32.94c.1-.14.13-.3.25-.42.3-.34 7.51-8.32 20.96-18.7a228.2 228.2 0 0 1 8.74-6.41 4.04 4.04 0 0 1 4.63 6.62c-2.9 2.03-5.73 4.11-8.42 6.2h-.01c-12.81 9.88-19.82 17.61-19.9 17.69-.04.05-.1.06-.14.1l42.9 35.7c.12-.17.19-.37.35-.53.42-.44 10.52-10.72 28.54-21.08a4.03 4.03 0 0 1 4.03 7c-16.98 9.76-26.69 19.62-26.78 19.72h-.01l5.56 4.63c.27-.38.59-.72.99-1 2.24-1.56 4.49-3.17 6.76-4.8 11.77-8.45 25.11-18.03 43.32-24.05h.01c3.44-1.14 7.05-2.14 10.73-2.98a142.05 142.05 0 0 1 31.94-3.37c9.96 0 19.44.86 28.18 2.57 7.31 1.43 14.1 3.42 20.78 6.07a4.04 4.04 0 0 1-2.98 7.51 108.25 108.25 0 0 0-19.35-5.65 139.4 139.4 0 0 0-26.63-2.42 134.1 134.1 0 0 0-30.14 3.17c-3.43.78-6.8 1.72-9.99 2.77-17.04 5.63-29.3 14.43-41.15 22.94-2.1 1.5-4.16 2.98-6.23 4.43l25.17 20.95c17.56-16.09 38.5-24.3 62.36-24.43 23.81.13 44.76 8.34 62.32 24.43l86-71.57c-.05-.05-.1-.06-.14-.11-.06-.06-5.73-6.31-16.15-14.74a222.74 222.74 0 0 0-59.28-34.26 4.04 4.04 0 1 1 2.89-7.55 231.04 231.04 0 0 1 52.67 28.77v.01c3.05 2.22 6 4.5 8.8 6.75 10.97 8.87 16.83 15.35 17.08 15.62.1.12.15.28.24.42l39.56-32.93a166.2 166.2 0 0 0-13.9-14.96l-.25-.09-.32-.23-2.49-2.4-2.31-1.93-.6-.52-3.38-3.45-1.04-.92-.4-.31-.5-.25-.34.16-.18.5-.37 2.71-.13.75-.43 2.71-.6 3.43-.1.77-.3 2.72-.08.77-.58 2.66-.17.78-.29 2.7-.16.78-.43 3.46-.36 2.71-.07.53-.33.44-.26.36-.6.6-.22.26-.55.24-.54-.35-1.96-1.81-2.75-2.18-.6-.53-2.49-2.47-2.12-1.7-.6-.52-1.95-1.8-.6-.53-2.05-1.77-.6-.52-4.48-4.25-.44-.46.14-.53 2.07-2.19.53-.6 1.15-1.2.6-.6.25-.3.55-.31.53.21 1.29 1 1.36 1.22 1.97 1.95.6.52 2.02 1.87.6.53 2.2 1.69.57.24.36-.4.42-3.52.25-2.82.43-3.45.16-.78.4-2.75.16-.78.5-2.72.17-.77.3-2.72.16-.78.43-2.71.13-.81.3-2.71.14-.47.33-.37 1.38-1.4.47-.38.46.14.56.5.59.59.86.9.6.59 2.13 1.9.63.49 2.24 1.79.62.48 2.1 1.94.57.56.42.42c1.21 1.07 2.42 2.13 3.57 3.18l1.53 1.18s18.03 18.33 22.38 24.21a4.24 4.24 0 0 1-.7 5.79"/>
    <path d="M244.3 220.83a201.1 201.1 0 0 0-35.3 5.27 4.03 4.03 0 1 1-1.9-7.86 209.13 209.13 0 0 1 36.98-5.47 4.04 4.04 0 0 1 .24 8.07m-81.14 48.64c3.61-2.28 7.27-4.41 10.89-6.33a4.03 4.03 0 1 1 3.79 7.14 160.27 160.27 0 0 0-10.36 6.02 4.04 4.04 0 0 1-4.32-6.83m31.38 20.16A150.53 150.53 0 0 1 256 276.4a4.04 4.04 0 1 1 0 8.08 142.5 142.5 0 0 0-58.16 12.56 4.03 4.03 0 1 1-3.28-7.39m11.04 44.77a4.04 4.04 0 0 1-5.65-5.78 41.87 41.87 0 0 1 28.68-11.47 4.04 4.04 0 1 1 0 8.08 34 34 0 0 0-23.03 9.17m72.83-84.89a4.09 4.09 0 0 1-4.36 3.69 215 215 0 0 0-18.07-.74c-7.56 0-14.93.37-21.9 1.1a4.04 4.04 0 0 1-.84-8.04A219.2 219.2 0 0 1 256 244.4c6.43 0 12.74.26 18.75.76a4.04 4.04 0 0 1 3.68 4.37m21.27 33.65c.4 0 .81.06 1.22.2a160.09 160.09 0 0 1 15 5.6 4.04 4.04 0 0 1-3.2 7.41 150.86 150.86 0 0 0-14.24-5.31 4.04 4.04 0 0 1 1.22-7.9"/>
  </g>
</svg>
