<?xml version="1.0" encoding="UTF-8" standalone="no"?>
<!-- Created with Inkscape (http://www.inkscape.org/) -->

<svg
   xmlns:dc="http://purl.org/dc/elements/1.1/"
   xmlns:cc="http://creativecommons.org/ns#"
   xmlns:rdf="http://www.w3.org/1999/02/22-rdf-syntax-ns#"
   xmlns:svg="http://www.w3.org/2000/svg"
   xmlns="http://www.w3.org/2000/svg"
   xmlns:sodipodi="http://sodipodi.sourceforge.net/DTD/sodipodi-0.dtd"
   xmlns:inkscape="http://www.inkscape.org/namespaces/inkscape"
   version="1.1"
   id="svg2"
   xml:space="preserve"
   width="320"
   height="172"
   viewBox="0 0 320 172"
   sodipodi:docname="logo_final CORRECTED.ai.svg"
   inkscape:version="0.92.2 5c3e80d, 2017-08-06"><metadata
     id="metadata8"><rdf:RDF><cc:Work
         rdf:about=""><dc:format>image/svg+xml</dc:format><dc:type
           rdf:resource="http://purl.org/dc/dcmitype/StillImage" /><dc:title></dc:title></cc:Work></rdf:RDF></metadata><defs
     id="defs6"><clipPath
       clipPathUnits="userSpaceOnUse"
       id="clipPath54"><path
         d="M 0,512 H 512 V 0 H 0 Z"
         id="path52"
         inkscape:connector-curvature="0" /></clipPath></defs><sodipodi:namedview
     pagecolor="#ffffff"
     bordercolor="#666666"
     borderopacity="1"
     objecttolerance="10"
     gridtolerance="10"
     guidetolerance="10"
     inkscape:pageopacity="0"
     inkscape:pageshadow="2"
     inkscape:window-width="1411"
     inkscape:window-height="848"
     id="namedview4"
     showgrid="false"
     showguides="true"
     inkscape:guide-bbox="true"
     inkscape:zoom="2.7656249"
     inkscape:cx="157.24588"
     inkscape:cy="89.466744"
     inkscape:window-x="0"
     inkscape:window-y="0"
     inkscape:window-maximized="0"
     inkscape:current-layer="g10"><sodipodi:guide
       position="118.23729,86"
       orientation="0,1"
       id="guide3809"
       inkscape:locked="true"
       inkscape:label=""
       inkscape:color="rgb(0,0,255)" /><sodipodi:guide
       position="160,70.870059"
       orientation="1,0"
       id="guide3811"
       inkscape:locked="true"
       inkscape:label=""
       inkscape:color="rgb(0,0,255)" /></sodipodi:namedview><g
     id="g10"
     inkscape:groupmode="layer"
     inkscape:label="logo_final"
     transform="matrix(1.3333333,0,0,-1.3333333,0,171.99998)"><g
       id="g3807"
       transform="matrix(0.58242254,0,0,0.58242307,-29.100125,-84.657546)"><g
         transform="translate(97.4673,226.3311)"
         id="g12"><path
           inkscape:connector-curvature="0"
           id="path14"
           style="fill:#000000;fill-opacity:1;fill-rule:nonzero;stroke:none"
           d="m 0,0 -0.643,0.24 -0.946,0.567 -2.578,2.004 -0.594,0.521 -1.797,1.844 -0.378,0.468 -0.163,0.336 0.122,0.291 0.32,0.438 1.869,1.975 0.516,0.661 0.48,0.699 0.447,0.656 0.715,0.887 0.394,0.375 0.42,0.028 0.356,-0.117 0.478,-0.355 L 1.007,9.964 1.601,9.441 3.419,7.775 3.949,7.179 4.601,6.279 4.927,5.598 5.04,4.907 4.981,4.17 4.752,3.385 4.413,2.696 3.933,2.004 3.414,1.339 2.856,0.778 2.186,0.315 1.438,-0.014 0.676,-0.133 Z m 2.31,-8.737 0.704,-0.025 1.115,0.072 0.693,0.113 0.726,0.151 0.756,0.189 0.822,0.264 0.748,0.328 0.712,0.359 0.673,0.464 0.663,0.532 0.629,0.563 0.558,0.563 0.521,0.592 0.643,0.882 0.486,0.627 0.411,0.69 0.334,0.756 0.232,0.784 0.199,0.748 0.171,1.096 0.091,0.778 0.133,1.195 0.019,0.773 -0.044,0.695 -0.114,0.693 -0.281,1.101 -0.221,0.72 -0.328,0.751 -0.398,0.743 -0.359,0.712 -0.394,0.673 -0.583,0.908 -0.458,0.601 -0.598,0.588 -1.411,1.24 -2.315,2.304 -0.594,0.522 -2.652,2.067 -4.281,4.027 -1.603,1.543 -0.589,0.452 -0.33,0.223 -0.544,0.28 -0.483,-0.103 -0.535,-0.381 -0.233,-0.189 -0.526,-0.525 -1.002,-1.29 -0.522,-0.592 -1.722,-2.035 -0.522,-0.596 -1.802,-1.899 -0.521,-0.594 -1.875,-1.903 -0.521,-0.594 -1.645,-2.1 -0.524,-0.594 -1.875,-1.903 -0.521,-0.594 -1.689,-1.999 -0.485,-0.623 -1.651,-2.101 -0.519,-0.592 -1.91,-1.875 -0.558,-0.557 -0.921,-0.9 -0.456,-0.59 -0.42,-0.553 -0.25,-0.433 0.093,-0.348 0.382,-0.463 1.606,-1.612 0.593,-0.521 1.802,-1.389 1.684,-1.675 0.593,-0.521 0.505,-0.249 0.348,0.024 0.466,0.376 0.558,0.563 0.522,0.591 0.745,0.925 0.485,0.627 1.679,2.207 0.485,0.626 1.866,1.973 0.535,0.385 0.494,-0.04 0.511,-0.386 1.126,-1.121 0.408,-0.428 0.127,-0.305 v -0.525 l -0.215,-2.636 -0.061,-0.74 -0.458,-2.616 -0.06,-0.742 -0.216,-2.636 -0.058,-0.74 -0.278,-2.709 0.036,-0.561 0.201,-0.441 0.48,-0.423 1.737,-1.392 0.592,-0.52 2.007,-1.833 2.594,-2.282 0.613,-0.277 0.445,0.204 0.171,0.572 0.027,0.701 0.025,2.347 0.019,0.768 0.296,3.029 0.019,0.769 0.265,2.993 0.055,0.739 0.328,3.067 0.113,0.424 0.396,-0.152 0.576,-0.311 0.712,-0.163 0.673,-0.13 z" /></g><g
         transform="translate(128.439,206.6338)"
         id="g16"><path
           inkscape:connector-curvature="0"
           id="path18"
           style="fill:#000000;fill-opacity:1;fill-rule:nonzero;stroke:none"
           d="m 0,0 -0.778,-2.976 -0.202,-0.755 -0.938,-3.4 -0.187,-0.646 -0.398,-0.334 -0.546,-0.111 -0.646,0.188 -1.858,1.402 -2.597,1.708 -0.521,0.464 -0.321,0.502 0.205,0.58 0.53,0.535 2.892,2.059 0.654,0.455 2.961,2.071 0.682,0.144 L -0.533,1.709 -0.077,1.23 0.146,0.671 Z M 9.315,8.942 7.449,10.23 4.231,12.348 2.28,13.519 1.579,13.8 1.002,13.827 0.5,13.508 -1.36,12.304 -2.015,11.852 -4.046,10.466 -4.769,9.999 -6.899,8.74 -7.623,8.269 -10.408,6.558 -14.117,4.153 -14.746,3.737 -17.382,2.159 -18.036,1.706 -20.448,0.1 l -0.657,-0.453 -2.594,-1.603 -0.627,-0.415 -2.55,-1.631 -0.654,-0.455 -1.422,-0.899 -0.681,-0.498 -0.301,-0.275 -0.395,-0.509 0.033,-0.674 0.332,-0.57 0.563,-0.312 2.666,-1.518 0.662,-0.435 2.31,-1.702 0.632,-0.473 0.778,-0.161 0.809,0.241 0.682,0.493 2.793,2.181 0.577,0.334 0.467,-0.014 0.587,-0.268 1.896,-1.251 0.649,-0.366 0.618,-0.408 2.445,-1.671 3.042,-2.116 0.659,-0.437 2.368,-1.797 0.467,-0.364 0.315,-0.326 0.019,-0.603 -1.002,-4.309 -0.094,-0.587 0.03,-0.492 0.431,-0.519 2.663,-1.521 1.855,-1.223 0.594,-0.446 0.891,-0.707 0.579,-0.38 0.588,-0.272 0.591,-0.093 0.587,0.264 0.257,0.661 0.536,2.605 0.596,3.331 0.091,0.767 0.287,2.591 0.406,3.398 0.132,0.743 0.533,2.605 0.13,0.74 0.425,2.619 0.132,0.739 0.397,2.578 0.133,0.74 0.643,2.591 0.13,0.741 0.425,2.619 0.135,0.741 0.243,2.617 0.16,0.78 0.48,1.988 0.149,0.674 -0.235,0.628 z" /></g><g
         transform="translate(170.3433,176.2607)"
         id="g20"><path
           inkscape:connector-curvature="0"
           id="path22"
           style="fill:#000000;fill-opacity:1;fill-rule:nonzero;stroke:none"
           d="M 0,0 0.397,1.062 0.687,1.747 1.358,3.069 1.6,3.771 1.708,4.153 1.849,4.738 1.821,5.181 1.645,5.523 1.184,5.824 l -1.09,0.463 -1.786,0.597 -0.704,0.245 -3.453,1.464 -2.688,1.246 -0.748,0.263 -1.6,0.518 -1.184,0.503 -0.489,0.366 -0.149,0.277 0.072,0.292 0.165,0.519 1.808,4.011 0.315,0.615 0.317,0.239 0.511,-0.056 1.002,-0.423 1.987,-1.002 5.258,-2.018 2.955,-1.254 0.707,-0.349 1.286,-0.762 0.955,-0.402 0.557,-0.078 0.37,0.113 0.271,0.257 0.256,0.482 0.334,0.663 0.265,0.748 0.37,1.126 0.309,0.729 0.671,1.324 0.29,0.686 0.126,0.427 0.166,0.518 -0.066,0.348 -0.216,0.254 -0.48,0.257 -0.733,0.416 -0.71,0.357 -1.118,0.526 -0.723,0.31 -2.743,0.999 -0.726,0.309 -2.622,1.275 -0.748,0.259 -2.741,1.003 -0.725,0.308 -2.578,1.254 -0.729,0.308 -2.74,1 -0.726,0.309 -1.67,0.869 -1.002,0.425 -0.491,0.103 -0.331,-0.023 -0.227,-0.279 -0.276,-0.527 -1.112,-2.37 -1.636,-3.865 -1.116,-2.37 -1.633,-3.861 -1.115,-2.37 -0.307,-0.729 -0.905,-2.512 -0.309,-0.725 -0.886,-2.468 -0.353,-0.709 -1.204,-2.333 -0.353,-0.706 -0.974,-2.432 -0.265,-0.745 -0.883,-2.468 -0.169,-0.518 -0.044,-0.356 0.193,-0.298 0.464,-0.303 1.328,-0.668 1.918,-0.654 0.729,-0.31 1.661,-0.76 0.745,-0.259 0.814,-0.24 0.539,-0.12 0.33,0.022 0.252,0.214 0.278,0.525 0.37,0.757 0.356,0.708 0.378,1.016 0.31,0.729 1.258,2.467 0.309,0.728 1.142,2.572 0.252,0.592 0.298,0.195 0.513,-0.058 0.674,-0.179 0.701,-0.242 4.871,-2.173 0.729,-0.309 2.765,-1.065 0.706,-0.353 1.588,-0.942 1.09,-0.461 0.601,-0.096 0.307,0.087 0.29,0.304 0.323,0.509 0.353,0.706 z" /></g><g
         transform="translate(196.3721,168.8369)"
         id="g24"><path
           inkscape:connector-curvature="0"
           id="path26"
           style="fill:#000000;fill-opacity:1;fill-rule:nonzero;stroke:none"
           d="m 0,0 -0.475,-0.29 -0.671,-0.044 -2.219,0.685 -3.022,0.719 -0.648,0.257 -0.472,0.368 -0.006,0.609 0.315,0.684 2.017,2.918 0.461,0.649 2.076,2.955 0.593,0.362 0.563,0.023 L -0.9,9.599 -0.5,9.146 -0.412,8.468 -0.127,5.406 -0.059,4.632 0.218,1.114 0.259,0.447 Z m 12.091,-10.957 -0.177,0.754 -0.612,2.528 -0.776,3.331 -0.13,0.742 -0.383,2.627 -0.124,0.74 L 9.395,2.367 9.265,3.11 8.763,5.666 8.636,6.405 8.356,9.061 8.227,9.8 7.736,12.402 7.609,13.143 6.946,15.685 6.831,16.474 6.607,18.509 6.516,19.187 6.08,19.698 l -0.778,0.337 -2.2,0.575 -3.743,0.899 -2.227,0.429 -0.756,0.028 -0.546,-0.173 -0.371,-0.47 -1.33,-1.761 -0.46,-0.649 -1.439,-1.992 -0.519,-0.684 -1.575,-1.911 -0.519,-0.684 -2.029,-2.558 -2.669,-3.522 -0.449,-0.602 -1.938,-2.379 -0.458,-0.648 -1.725,-2.327 -0.461,-0.654 -1.89,-2.385 -0.448,-0.604 -1.843,-2.399 -0.458,-0.654 -1.027,-1.327 -0.474,-0.695 -0.186,-0.363 -0.196,-0.612 0.255,-0.621 0.507,-0.425 0.635,-0.101 3.022,-0.52 0.767,-0.182 2.749,-0.808 0.756,-0.232 0.787,0.116 0.677,0.497 0.471,0.697 1.885,3 0.425,0.506 0.442,0.148 0.649,-0.051 2.205,-0.528 0.731,-0.124 0.72,-0.174 2.868,-0.733 3.574,-0.958 0.767,-0.186 2.835,-0.88 0.563,-0.184 0.408,-0.2 0.221,-0.56 0.528,-4.386 0.109,-0.587 0.199,-0.45 0.577,-0.342 3.02,-0.519 2.16,-0.516 0.707,-0.221 1.082,-0.36 0.668,-0.16 0.651,-0.055 0.585,0.114 0.461,0.449 0.017,0.705 -0.386,2.63 z" /></g><g
         transform="translate(247.7422,155.8896)"
         id="g28"><path
           inkscape:connector-curvature="0"
           id="path30"
           style="fill:#000000;fill-opacity:1;fill-rule:nonzero;stroke:none"
           d="m 0,0 -0.328,0.221 -0.483,0.133 -1.132,0.08 -2.029,0.044 -0.792,0.008 -3.102,0.17 -0.786,0.057 -3.116,0.023 -3.886,0.278 -0.588,0.09 -0.334,0.221 -0.13,0.257 -0.014,0.497 0.238,3.295 0.226,2.509 0.387,0.566 4.024,1.645 0.568,0.302 0.22,0.332 0.136,0.536 0.102,0.734 0.05,0.737 0.008,0.742 0.105,0.785 0.251,1.465 0.05,0.739 -0.204,0.607 -0.373,0.277 -0.444,0.03 -0.651,-0.103 -0.757,-0.193 -0.756,-0.243 -0.762,-0.293 -0.599,-0.057 -0.378,0.276 -0.223,0.311 -0.061,0.55 0.091,2.663 0.105,0.787 0.331,2.598 0.105,0.783 0.138,1.228 0.006,0.74 -0.05,0.745 -0.059,0.55 -0.223,0.313 -0.287,0.166 -0.588,0.091 -0.78,0.107 -0.79,0.056 -1.927,0.039 -0.786,0.055 -2.647,0.337 -0.842,0.01 -0.494,-0.012 -0.309,-0.128 -0.215,-0.282 -0.191,-0.581 -0.201,-1.469 -0.022,-1.681 -0.061,-0.836 -0.325,-3.193 -0.337,-4.723 -0.028,-3.165 -0.049,-0.739 -0.249,-0.678 -0.472,-0.408 -0.659,-0.251 -0.757,-0.143 -0.805,-0.24 -0.519,-0.309 -0.174,-0.384 -0.094,-0.635 -0.295,-2.057 -0.105,-0.786 -0.13,-1.128 -0.055,-0.738 0.08,-0.304 0.108,-0.551 0.322,-0.318 0.434,-0.181 0.496,0.013 0.56,0.21 0.257,0.179 0.718,0.346 0.549,0.06 0.219,-0.412 -0.045,-0.64 -0.231,-1.863 -0.109,-0.786 -0.214,-2.357 -0.105,-0.784 -0.191,-1.272 -0.053,-0.739 0.02,-0.398 0.113,-0.55 0.221,-0.314 0.389,-0.126 1.366,-0.293 0.782,-0.105 2.017,-0.147 2.862,-0.103 0.789,-0.059 2.868,-0.006 0.789,-0.053 2.845,-0.303 4.431,-0.315 5.144,-0.711 0.739,-0.052 0.691,10e-4 0.601,0.106 0.414,0.265 0.174,0.334 0.135,0.536 0.083,1.131 -0.182,1.644 0.058,0.789 0.383,1.9 0.058,0.838 -0.052,0.649 z" /></g><g
         transform="translate(307.8721,167.5811)"
         id="g32"><path
           inkscape:connector-curvature="0"
           id="path34"
           style="fill:#000000;fill-opacity:1;fill-rule:nonzero;stroke:none"
           d="m 0,0 -0.297,1.554 -0.429,2.185 -0.192,3.061 -0.101,0.781 -0.284,3.001 -0.098,0.783 -0.534,3.017 -0.101,0.781 -0.094,1.131 -0.095,0.734 -0.233,1.463 -0.125,0.583 -0.436,0.292 -0.657,0.069 -0.74,-0.046 -0.78,-0.1 -1.941,-0.397 -0.78,-0.102 -2.526,-0.122 -1.027,-0.13 -0.618,-0.228 -0.389,-0.451 -0.111,-0.709 0.157,-1.222 0.41,-2.038 0.148,-0.775 0.486,-3.025 0.1,-0.783 0.284,-2.998 0.099,-0.784 0.24,-3.055 0.101,-0.783 0.575,-2.959 0.052,-0.792 -0.006,-1.492 -0.051,-0.801 -0.144,-0.818 -0.248,-0.776 -0.406,-1.098 -0.416,-0.649 -0.695,-0.786 -0.585,-0.472 -0.876,-0.56 -0.709,-0.288 -1.242,-0.408 -0.782,-0.1 -1.288,-0.066 -0.756,0.103 -1.13,0.256 -0.686,0.31 -0.889,0.734 -0.563,0.525 -0.635,1.061 -0.387,0.699 -0.429,1.038 -0.249,0.764 -0.25,1.212 -0.154,0.776 -0.331,2.994 -0.098,0.784 -0.236,3.006 -0.098,0.78 -0.335,2.992 -0.099,0.787 -0.529,2.964 -0.101,0.783 -0.143,1.921 -0.093,0.735 -0.139,0.681 -0.225,0.619 -0.442,0.339 -0.657,0.066 -1.132,-0.093 -0.739,-0.047 -1.61,-0.255 -0.784,-0.098 -1.88,-0.092 -1.599,-0.304 -0.619,-0.229 -0.287,-0.485 -0.05,-0.798 0.061,-0.841 0.105,-0.834 0.299,-1.554 0.579,-4.549 0.237,-3.006 0.1,-0.785 0.477,-2.973 0.1,-0.785 0.233,-3.002 0.15,-0.778 0.311,-1.65 0.204,-0.82 0.252,-0.814 0.331,-1.051 0.29,-0.71 0.284,-0.662 0.39,-0.695 0.44,-0.741 0.487,-0.684 0.526,-0.63 0.947,-1.172 0.516,-0.533 0.743,-0.751 0.607,-0.469 1.41,-0.913 0.796,-0.397 0.792,-0.346 1.139,-0.354 0.828,-0.242 0.409,-0.096 0.817,-0.144 0.444,0.005 0.803,-0.046 2.73,0.05 0.74,0.044 1.14,0.047 2.251,0.29 1.504,0.289 0.715,0.24 1.102,0.34 0.709,0.289 1.027,0.53 0.703,0.337 0.964,0.621 0.594,0.425 0.905,0.712 0.581,0.522 0.878,0.907 0.568,0.622 0.505,0.711 0.41,0.697 0.51,1.058 0.257,0.729 0.31,1.088 0.156,0.716 0.259,1.078 0.105,0.759 0.05,1.151 0.044,0.801 0.05,1.2 0.003,0.748 -0.094,1.132 z" /></g><g
         transform="translate(338.1104,168.9385)"
         id="g36"><path
           inkscape:connector-curvature="0"
           id="path38"
           style="fill:#000000;fill-opacity:1;fill-rule:nonzero;stroke:none"
           d="m 0,0 -0.105,-0.339 -0.274,-0.444 -0.449,-0.396 -0.712,-0.372 -1.578,-0.582 -6.616,-2.172 -0.644,-0.094 -0.383,0.088 -0.278,0.227 -0.255,0.491 -0.284,0.944 -0.151,0.831 -0.318,1.04 -0.278,0.74 -0.244,0.803 -0.123,0.58 0.065,0.281 0.384,0.27 0.805,0.401 0.694,0.265 2.787,0.847 0.789,0.292 2.095,0.743 0.679,0.155 0.356,0.007 0.784,-0.019 0.884,-0.195 0.8,-0.431 0.386,-0.243 0.578,-0.543 0.343,-0.619 0.248,-0.646 0.04,-0.298 0.088,-0.8 z m -13.894,9.34 -0.579,-0.124 -0.439,0.074 -0.273,0.227 -0.254,0.491 -0.276,0.739 -0.162,0.362 -0.185,0.773 -0.203,1.176 -0.046,0.657 0.116,0.293 0.24,0.227 0.411,0.177 0.444,0.238 0.992,0.303 0.739,0.279 1.168,0.406 0.712,0.218 1.913,0.323 0.425,0.13 0.83,0.152 0.344,0.052 0.769,0.027 0.312,-0.006 0.805,-0.272 0.61,-0.486 0.328,-0.568 0.246,-0.804 0.058,-0.706 -0.138,-0.557 -0.215,-0.478 -0.37,-0.475 -0.481,-0.458 -0.574,-0.329 -1.037,-0.313 -1.634,-0.399 -1.115,-0.234 -0.803,-0.245 -0.787,-0.293 z M 9.724,4 9.541,4.769 9.361,5.181 9.024,5.956 8.592,6.699 8.122,7.383 7.818,7.7 7.259,8.357 6.618,8.937 5.605,9.713 l -0.751,0.44 -0.725,0.346 -0.571,0.345 -0.254,0.335 0.039,0.375 0.263,0.49 0.54,0.938 0.314,0.666 0.245,1.054 0.08,0.748 -0.047,1.17 -0.101,0.851 -0.2,0.816 -0.278,0.739 -0.559,1.171 -0.373,0.713 -0.453,0.637 -0.486,0.574 -0.795,0.739 -0.514,0.511 -0.908,0.603 -0.629,0.377 -1.004,0.414 -0.746,0.238 -1.04,0.198 -0.808,0.115 -1.968,0.02 -0.848,-0.105 -0.83,-0.148 -2.796,-0.646 -0.756,-0.23 -2.614,-0.745 -0.754,-0.232 -2.521,-0.869 -4.179,-1.018 -5.109,-1.708 -0.74,-0.28 -0.632,-0.297 -0.383,-0.425 -0.006,-0.674 0.334,-1.084 0.572,-1.375 0.279,-0.739 0.951,-2.448 0.185,-0.77 0.621,-2.545 0.183,-0.77 0.811,-2.487 0.225,-0.76 0.862,-2.474 0.229,-0.754 0.577,-2.559 0.632,-2.08 0.312,-1.193 0.217,-0.709 0.246,-0.646 0.266,-0.696 0.408,-1.167 0.276,-0.74 0.621,-2.547 0.246,-0.801 0.066,-0.391 0.232,-0.759 0.168,-0.721 0.252,-0.648 0.25,-0.489 0.31,-0.166 0.419,-0.023 0.69,0.107 0.784,0.132 1.81,0.502 0.709,0.215 2.567,0.89 0.757,0.228 2.687,0.662 4.107,1.253 2.57,0.889 0.756,0.229 1.104,0.44 0.742,0.278 1.044,0.472 1.995,1.073 0.635,0.453 0.684,0.467 0.608,0.546 0.56,0.532 0.5,0.567 0.921,1.209 0.36,0.678 0.482,1.126 0.238,0.746 0.198,1.04 0.084,0.747 0.027,1.094 -0.072,0.75 z" /></g><g
         transform="translate(374.3984,175.7002)"
         id="g40"><path
           inkscape:connector-curvature="0"
           id="path42"
           style="fill:#000000;fill-opacity:1;fill-rule:nonzero;stroke:none"
           d="m 0,0 -1.099,1.772 -0.347,0.707 -1.008,2.475 -0.306,0.73 -1.358,2.298 -1.773,3.582 0.003,0.442 0.452,2.758 0.159,0.792 0.408,2.734 0.135,0.84 0.364,2.709 0.089,0.818 0.168,2.78 0.113,0.772 0.497,2.776 0.154,0.792 0.868,6.265 0.065,0.53 -0.041,0.199 -0.268,-0.022 -0.571,-0.174 -2.608,-1.07 -0.706,-0.352 -2.501,-1.401 -0.707,-0.352 -2.277,-0.96 -0.508,-0.198 -0.311,-0.263 -0.133,-0.615 -0.231,-2.649 -0.045,-0.795 -0.08,-2.625 -0.114,-0.77 -0.405,-2.622 -0.113,-0.775 -0.057,-2.67 -0.158,-0.461 -0.31,-0.044 -0.502,0.246 -2.135,1.309 -0.707,0.426 -2.154,1.464 -0.639,0.401 -2.31,1.33 -0.64,0.4 -2.376,1.575 -0.241,0.044 -0.51,-0.196 -2.628,-1.137 -0.729,-0.305 -5.928,-2.932 -0.176,-0.309 0.063,-0.243 0.334,-0.334 2.329,-1.484 0.66,-0.444 2.357,-1.422 0.66,-0.445 5.415,-3.154 0.659,-0.444 2.332,-1.485 0.703,-0.422 2.402,-1.291 0.704,-0.423 2.246,-1.532 0.461,-0.155 0.284,-0.355 1.006,-2.474 0.393,-0.686 1.361,-2.299 0.392,-0.688 2.694,-5.437 0.306,-0.397 0.245,-0.048 5.258,2.385 2.918,1.444 0.356,0.287 0.086,0.264 -0.039,0.42 z" /></g><g
         transform="translate(411.541,204.9219)"
         id="g44"><path
           inkscape:connector-curvature="0"
           id="path46"
           style="fill:#000000;fill-opacity:1;fill-rule:nonzero;stroke:none"
           d="m 0,0 -0.21,1.063 -0.202,0.708 -0.43,1.026 -0.339,0.728 -0.406,0.74 -0.448,0.712 -0.527,0.654 -0.509,0.547 -0.79,0.769 -0.591,0.489 -0.712,0.403 -0.696,0.29 -0.995,0.38 -0.749,0.197 -0.783,0.165 -1.856,0.135 -0.75,-0.055 -0.791,-0.08 L -12.547,8.753 -13.609,8.54 -15.022,8.143 -15.74,7.872 -16.805,7.411 -18.379,6.9 -19.977,6.244 -20.744,5.88 -22.168,4.985 -23.258,4.387 -23.945,4.077 -24.312,4 l -0.657,-0.102 -0.728,0.082 -0.691,0.295 -0.494,0.434 -0.381,0.701 -0.118,0.768 0.027,0.381 0.224,0.706 0.157,0.293 0.497,0.66 0.598,0.606 0.654,0.528 1.047,0.745 1.101,0.668 0.671,0.417 1.068,0.458 0.798,0.325 0.378,0.152 0.748,0.227 0.366,0.082 0.776,0.187 0.858,0.067 0.547,0.086 0.309,0.162 0.237,0.348 0.193,0.745 0.042,0.88 0.091,3.1 -0.022,0.709 -0.13,1.118 -0.074,0.615 -0.284,0.404 -0.621,0.101 -0.781,-0.011 -0.762,-0.118 -1.08,-0.102 -0.774,-0.191 -0.804,-0.149 -0.814,-0.218 -0.825,-0.287 -0.787,-0.257 -0.8,-0.324 -1.538,-0.735 -0.701,-0.378 -0.339,-0.118 -0.657,-0.352 -1.295,-0.739 -0.643,-0.458 -0.571,-0.47 -0.588,-0.541 -0.766,-0.789 -1.093,-1.022 -0.556,-0.581 -0.81,-0.82 -0.459,-0.63 -0.861,-1.344 -0.448,-0.985 -0.364,-0.682 -0.262,-0.734 -0.237,-0.772 -0.213,-1.063 -0.086,-0.728 0.022,-0.712 0.12,-0.765 0.231,-1.17 0.227,-0.745 0.21,-0.636 0.309,-0.689 0.611,-1.025 0.415,-0.67 0.999,-1.228 0.75,-0.798 0.553,-0.518 0.883,-0.64 0.668,-0.432 0.795,-0.344 0.734,-0.265 1.084,-0.077 0.78,0.01 0.863,0.07 0.778,0.011 1.855,0.293 0.802,0.146 0.746,0.231 1.115,0.31 0.757,0.298 1.377,0.614 4.074,2.363 0.769,0.37 0.797,0.326 0.777,0.187 0.408,0.112 0.808,-0.032 0.373,-0.096 0.72,-0.333 0.313,-0.266 0.527,-0.65 0.187,-0.78 v -0.422 l -0.113,-0.69 -0.295,-0.692 -0.431,-0.674 -0.265,-0.309 -0.582,-0.538 -2.418,-1.969 -0.674,-0.416 -0.951,-0.621 -0.729,-0.337 -0.785,-0.258 -0.747,-0.227 -1.24,-0.218 -0.761,-0.119 -0.833,-0.11 -1.916,-0.033 -0.673,0.005 -0.5,-0.234 -0.268,-0.556 -0.085,-0.728 -0.05,-0.701 0.064,-1.535 -0.044,-0.695 -0.38,-1.849 -0.089,-0.729 -0.017,-0.314 0.055,-0.505 0.243,-0.252 0.58,-0.135 0.756,-0.127 0.771,-0.058 1.122,-0.046 0.77,-0.058 1.913,0.036 0.756,0.049 0.762,0.119 0.802,0.151 0.762,0.12 1.087,0.347 0.745,0.232 0.769,0.364 0.662,0.35 0.979,0.58 0.594,0.362 0.88,0.629 1.844,1.495 0.897,0.701 0.535,0.442 0.826,0.709 0.544,0.511 0.891,0.878 0.558,0.579 0.918,1.262 0.696,0.98 0.361,0.684 0.373,0.751 0.262,0.734 0.431,1.096 0.169,0.783 0.136,0.828 0.059,0.771 -0.033,1.064 z" /></g><g
         id="g48"><g
           clip-path="url(#clipPath54)"
           id="g50"><g
             transform="translate(458.5762,249.125)"
             id="g56"><path
               inkscape:connector-curvature="0"
               id="path58"
               style="fill:#000000;fill-opacity:1;fill-rule:nonzero;stroke:none"
               d="m 0,0 -137.707,114.609 c -1.673,1.389 -4.132,1.292 -5.686,-0.237 -16.487,-16.228 -36.406,-24.519 -59.161,-24.643 -22.8,0.124 -42.718,8.415 -59.206,24.643 -1.551,1.532 -4.013,1.628 -5.685,0.237 L -405.151,0 c -1.731,-1.437 -2.035,-3.974 -0.696,-5.781 3.033,-4.099 4.937,-6.401 9.569,-11.151 1.633,-1.675 4.319,-1.709 5.994,-0.077 1.678,1.634 1.711,4.32 0.077,5.995 -3.058,3.137 -4.799,5.088 -6.4,7.096 l 39.578,32.939 c 0.096,-0.135 0.134,-0.292 0.248,-0.419 0.301,-0.334 7.518,-8.313 20.964,-18.688 0.003,0 0.003,-0.003 0.005,-0.005 2.791,-2.156 5.73,-4.313 8.736,-6.414 0.706,-0.495 1.512,-0.728 2.312,-0.728 1.276,0 2.529,0.601 3.315,1.724 1.278,1.83 0.831,4.35 -0.996,5.628 -2.901,2.026 -5.735,4.106 -8.426,6.187 -0.003,0.003 -0.005,0.003 -0.008,0.003 -12.809,9.889 -19.822,17.619 -19.894,17.696 -0.041,0.045 -0.097,0.061 -0.141,0.105 l 42.897,35.7 c 0.125,-0.177 0.191,-0.378 0.349,-0.538 0.419,-0.433 10.52,-10.72 28.54,-21.075 0.635,-0.367 1.327,-0.538 2.012,-0.538 1.399,0 2.76,0.726 3.505,2.026 1.112,1.935 0.447,4.404 -1.488,5.517 -16.973,9.756 -26.685,19.609 -26.782,19.708 0,0.003 -0.003,0.003 -0.006,0.003 l 5.564,4.631 c 0.265,-0.375 0.586,-0.717 0.983,-0.996 2.247,-1.565 4.493,-3.177 6.764,-4.808 11.772,-8.448 25.113,-18.025 43.324,-24.041 0.002,-0.003 0.005,-0.006 0.01,-0.006 3.433,-1.137 7.044,-2.139 10.728,-2.978 9.936,-2.268 20.382,-3.373 31.938,-3.373 9.955,0 19.438,0.865 28.179,2.573 h 0.004 c 7.307,1.432 14.102,3.417 20.778,6.069 2.075,0.825 3.088,3.174 2.265,5.246 -0.822,2.076 -3.176,3.081 -5.246,2.266 -6.21,-2.467 -12.541,-4.313 -19.352,-5.649 h -0.003 c -8.231,-1.609 -17.19,-2.423 -26.625,-2.423 -10.944,0 -20.802,1.037 -30.138,3.168 -3.437,0.786 -6.799,1.719 -9.989,2.774 -0.003,0 -0.005,0 -0.005,0.002 -17.04,5.631 -29.299,14.426 -41.153,22.938 -2.095,1.502 -4.16,2.978 -6.229,4.424 l 25.173,20.951 c 17.559,-16.085 38.509,-24.301 62.363,-24.431 23.812,0.13 44.76,8.346 62.319,24.431 L -54.238,34.11 c -0.045,-0.044 -0.1,-0.06 -0.142,-0.105 -0.057,-0.06 -5.724,-6.311 -16.15,-14.737 l -0.004,-0.003 c -2.682,-2.169 -5.532,-4.355 -8.472,-6.503 -0.003,0 -0.006,0 -0.009,-0.002 -12.61,-9.202 -26.159,-17.068 -40.272,-23.38 -3.447,-1.545 -6.991,-3.017 -10.529,-4.377 -2.084,-0.8 -3.124,-3.138 -2.325,-5.221 0.619,-1.606 2.151,-2.594 3.773,-2.594 0.483,0 0.974,0.087 1.45,0.27 3.676,1.413 7.355,2.941 10.935,4.545 14.624,6.541 28.665,14.694 41.733,24.227 0.002,0.002 0.002,0.005 0.005,0.005 3.05,2.222 6.008,4.491 8.79,6.745 h 0.003 c 10.975,8.871 16.836,15.351 17.081,15.622 0.113,0.127 0.155,0.284 0.248,0.419 L -8.565,-3.902 c -3.725,-4.63 -8.387,-9.638 -13.893,-14.961 l -0.254,-0.091 -0.326,-0.228 -2.486,-2.402 -2.316,-1.928 -0.592,-0.524 -3.387,-3.452 c -0.346,-0.304 -0.688,-0.607 -1.038,-0.914 l -0.398,-0.314 -0.503,-0.249 -0.342,0.158 -0.176,0.501 -0.368,2.714 -0.128,0.742 -0.434,2.719 -0.602,3.427 -0.093,0.773 -0.296,2.711 -0.094,0.775 -0.576,2.656 -0.166,0.781 -0.293,2.709 -0.162,0.776 -0.425,3.456 -0.364,2.712 -0.073,0.528 -0.328,0.438 -0.257,0.368 -0.593,0.59 -0.23,0.262 -0.547,0.24 -0.546,-0.35 -1.959,-1.808 -2.749,-2.18 -0.593,-0.527 -2.49,-2.473 -2.125,-1.692 -0.59,-0.524 -1.963,-1.808 -0.59,-0.524 -2.059,-1.767 -0.594,-0.524 -4.479,-4.245 -0.447,-0.464 0.143,-0.533 2.074,-2.185 0.524,-0.594 1.15,-1.217 0.597,-0.595 0.259,-0.295 0.541,-0.314 0.535,0.213 1.286,1.008 1.366,1.215 1.969,1.945 0.59,0.524 2.031,1.872 0.594,0.524 2.197,1.692 0.574,0.242 0.359,-0.406 0.423,-3.52 0.253,-2.813 0.424,-3.45 0.166,-0.781 0.395,-2.749 0.166,-0.78 0.502,-2.722 0.163,-0.776 0.295,-2.712 0.166,-0.78 0.434,-2.716 0.124,-0.812 0.294,-2.709 0.146,-0.466 0.329,-0.366 1.385,-1.412 0.467,-0.377 0.464,0.145 0.555,0.494 0.593,0.592 0.857,0.897 0.594,0.594 2.139,1.901 0.625,0.488 2.24,1.789 0.625,0.489 2.105,1.939 0.56,0.561 0.423,0.416 c 1.215,1.065 2.417,2.13 3.573,3.176 l 1.529,1.185 c 0,0 18.026,18.331 22.38,24.213 C 2.033,-3.974 1.73,-1.437 0,0" /></g><g
             transform="translate(244.3062,220.834)"
             id="g60"><path
               inkscape:connector-curvature="0"
               id="path62"
               style="fill:#000000;fill-opacity:1;fill-rule:nonzero;stroke:none"
               d="m 0,0 c -11.84,0.689 -23.722,2.459 -35.316,5.252 -2.178,0.524 -4.352,-0.812 -4.874,-2.981 -0.524,-2.169 0.812,-4.352 2.981,-4.875 12.061,-2.908 24.419,-4.747 36.74,-5.466 0.08,-0.003 0.159,-0.005 0.237,-0.005 2.126,0 3.905,1.657 4.032,3.805 C 3.93,-2.042 2.23,-0.13 0,0" /></g><g
             transform="translate(163.1812,269.4805)"
             id="g64"><path
               inkscape:connector-curvature="0"
               id="path66"
               style="fill:#000000;fill-opacity:1;fill-rule:nonzero;stroke:none"
               d="m 0,0 c 3.61,-2.28 7.272,-4.411 10.885,-6.332 0.604,-0.32 1.253,-0.472 1.893,-0.472 1.446,0 2.846,0.779 3.572,2.145 1.046,1.971 0.298,4.416 -1.673,5.465 C 11.244,2.629 7.758,4.659 4.316,6.833 2.431,8.02 -0.061,7.465 -1.258,5.575 -2.451,3.687 -1.888,1.192 0,0" /></g><g
             transform="translate(194.5586,289.6411)"
             id="g68"><path
               inkscape:connector-curvature="0"
               id="path70"
               style="fill:#000000;fill-opacity:1;fill-rule:nonzero;stroke:none"
               d="m 0,0 c 19.792,-8.793 40.463,-13.253 61.441,-13.253 2.234,0 4.04,1.808 4.04,4.041 0,2.233 -1.806,4.04 -4.04,4.04 -19.838,0 -39.409,4.226 -58.162,12.558 C 1.237,8.296 -1.15,7.372 -2.053,5.333 -2.958,3.295 -2.04,0.905 0,0" /></g><g
             transform="translate(205.6011,334.4185)"
             id="g72"><path
               inkscape:connector-curvature="0"
               id="path74"
               style="fill:#000000;fill-opacity:1;fill-rule:nonzero;stroke:none"
               d="m 0,0 c -1.592,1.559 -4.148,1.531 -5.713,-0.061 -1.562,-1.595 -1.535,-4.153 0.061,-5.713 2.748,-2.691 12.938,-11.47 28.683,-11.47 2.234,0 4.041,1.808 4.041,4.04 0,2.233 -1.807,4.04 -4.041,4.04 C 12.952,-9.164 4.526,-4.43 0,0" /></g><g
             transform="translate(278.4326,249.5293)"
             id="g76"><path
               inkscape:connector-curvature="0"
               id="path78"
               style="fill:#000000;fill-opacity:1;fill-rule:nonzero;stroke:none"
               d="m 0,0 c -0.187,2.224 -2.173,3.833 -4.366,3.687 -5.78,-0.486 -11.857,-0.734 -18.067,-0.734 -7.559,0 -14.931,0.369 -21.908,1.095 -2.213,0.255 -4.209,-1.38 -4.438,-3.599 -0.232,-2.22 1.381,-4.206 3.599,-4.438 7.256,-0.756 14.909,-1.139 22.747,-1.139 6.434,0 12.743,0.256 18.746,0.762 C -1.463,-4.179 0.187,-2.226 0,0" /></g><g
             transform="translate(299.6982,283.1807)"
             id="g80"><path
               inkscape:connector-curvature="0"
               id="path82"
               style="fill:#000000;fill-opacity:1;fill-rule:nonzero;stroke:none"
               d="m 0,0 c 0.402,0 0.814,0.063 1.219,0.19 5.014,1.587 10.06,3.472 15.001,5.602 2.048,0.884 2.994,3.263 2.109,5.311 -0.882,2.045 -3.261,3.002 -5.311,2.108 C 8.329,11.188 3.538,9.4 -1.221,7.896 -3.346,7.223 -4.526,4.951 -3.853,2.823 -3.31,1.101 -1.718,0 0,0" /></g></g></g></g></g></svg>