<?xml version="1.0" encoding="UTF-8"?><!DOCTYPE svg PUBLIC "-//W3C//DTD SVG 1.1//EN" "http://www.w3.org/Graphics/SVG/1.1/DTD/svg11.dtd"><svg xmlns="http://www.w3.org/2000/svg" xmlns:xlink="http://www.w3.org/1999/xlink"><defs/><symbol id="icon-check-mark"><path d="M20 12.194V22H0V2h18.272l-1.951 2H2v16h16v-5.768l2-2.038zm.904-10.027L11.5 11.806 7.095 7.63 4 10.727 11.5 18 24 5.263l-3.096-3.096z"/></symbol><symbol id="icon-email"><path d="M0 3v18h24V3H0zm6.623 7.929L2 16.641V7.183l4.623 3.746zM2.482 5h19.035L12 12.713 2.482 5zm5.694 7.188L12 15.287l3.83-3.104L21.442 19H2.663l5.513-6.812zm9.208-1.264L22 7.183v9.348l-4.616-5.607z"/></symbol><symbol id="icon-facebook"><path d="M22.675 0H1.325C.593 0 0 .593 0 1.325v21.351C0 23.407.593 24 1.325 24H12.82v-9.294H9.692v-3.622h3.128V8.413c0-3.1 1.893-4.788 4.659-4.788 1.325 0 2.463.099 2.795.143v3.24l-1.918.001c-1.504 0-1.795.715-1.795 1.763v2.313h3.587l-.467 3.622h-3.12V24h6.116c.73 0 1.323-.593 1.323-1.325V1.325C24 .593 23.407 0 22.675 0z"/></symbol><symbol id="icon-map"><path d="M12 0C8.852 0 6 2.553 6 5.702c0 4.682 4.783 5.177 6 12.298 1.217-7.121 6-7.616 6-12.298C18 2.553 15.149 0 12 0zm0 8a2 2 0 1 1-.001-3.999A2 2 0 0 1 12 8zm12 16l-6.707-2.427L12 24l-5.581-2.427L0 24l4-9 3.96-1.584c.38.516.741 1.08 1.061 1.729l-3.523 1.41-1.725 3.88 2.672-1.01 1.506-2.687-.635 3.044 4.189 1.789L12 19.55l.465 2.024 4.15-1.89-.618-3.033 1.572 2.896 2.732.989-1.739-3.978-3.581-1.415c.319-.65.681-1.215 1.062-1.731L20.064 15 24 24z"/></symbol><symbol id="icon-phone"><path d="M20 22.621l-3.521-6.795a618.8 618.8 0 0 1-2.064 1.011c-2.24 1.086-6.799-7.82-4.609-8.994l2.083-1.026L8.396 0 6.29 1.039c-7.202 3.755 4.233 25.982 11.6 22.615.121-.055 2.102-1.029 2.11-1.033z"/></symbol></svg>